<?xml version="1.0" standalone="no"?>
<!DOCTYPE svg PUBLIC "-//W3C//DTD SVG 20010904//EN"
 "http://www.w3.org/TR/2001/REC-SVG-20010904/DTD/svg10.dtd">
<svg version="1.0" xmlns="http://www.w3.org/2000/svg"
 width="1250.000000pt" height="1250.000000pt" viewBox="0 0 1250.000000 1250.000000"
 preserveAspectRatio="xMidYMid meet">
<metadata>
Created by potrace 1.16, written by Peter Selinger 2001-2019
</metadata>
<g transform="translate(0.000000,1250.000000) scale(0.100000,-0.100000)"
fill="#000000" stroke="none">
<path d="M5820 11986 c-87 -25 -202 -92 -610 -359 -135 -88 -344 -220 -465
-292 -309 -186 -318 -192 -430 -271 -156 -111 -300 -202 -425 -269 -63 -34
-207 -120 -320 -192 -294 -186 -296 -187 -394 -243 -48 -29 -116 -74 -151
-100 -34 -27 -127 -91 -206 -141 -202 -129 -281 -189 -379 -288 -214 -216
-281 -443 -201 -681 38 -113 117 -276 166 -342 19 -26 60 -66 92 -89 32 -23
80 -62 106 -86 26 -25 69 -54 95 -65 43 -19 419 -238 619 -361 45 -28 110 -75
145 -104 38 -33 70 -52 80 -50 30 8 180 -87 273 -173 43 -40 103 -77 260 -160
190 -101 679 -401 815 -500 36 -26 115 -75 175 -110 61 -34 130 -78 155 -96
101 -77 368 -190 555 -235 119 -28 284 -26 409 5 174 45 382 145 703 342 84
52 175 105 201 118 26 13 97 59 157 101 150 105 329 215 563 347 109 61 232
135 275 164 43 30 81 54 84 54 3 0 28 16 56 36 43 31 118 76 272 164 17 10
120 71 230 137 258 155 246 148 256 132 12 -19 11 -2095 -1 -2304 -14 -246
-19 -262 -90 -328 -104 -96 -409 -294 -1045 -677 -404 -243 -513 -314 -593
-387 -62 -57 -65 -68 -83 -310 -19 -265 1 -567 45 -651 8 -16 29 -41 46 -56
64 -54 195 -27 378 78 53 30 120 71 147 91 105 75 220 148 515 325 414 249
528 321 641 401 53 38 141 94 195 125 54 31 122 73 149 94 83 62 156 109 245
158 68 38 110 72 220 182 74 74 143 151 152 170 10 19 36 75 58 123 l41 89 9
336 c14 524 33 2958 26 3237 -7 267 -19 403 -42 467 -21 61 -98 171 -157 225
-71 64 -141 101 -229 119 -153 32 -284 -13 -545 -188 -57 -38 -156 -99 -220
-136 -126 -72 -194 -116 -258 -168 -22 -18 -105 -72 -185 -120 -80 -48 -255
-158 -390 -244 -135 -87 -308 -195 -385 -240 -277 -165 -469 -285 -587 -367
-226 -159 -539 -345 -772 -459 -160 -79 -223 -92 -366 -75 -114 13 -214 41
-261 75 -73 53 -184 123 -428 269 -348 208 -356 213 -471 290 -56 37 -132 83
-170 102 -37 19 -108 63 -158 99 -49 35 -120 80 -158 100 -38 20 -98 55 -134
77 -453 287 -545 351 -568 395 -11 21 -19 25 -43 22 -16 -3 -29 -1 -29 3 0 13
43 39 63 39 10 0 170 103 355 228 186 126 389 259 452 297 63 37 158 96 210
130 180 117 265 170 293 183 28 12 384 233 482 299 27 18 57 33 65 33 8 0 76
40 151 88 74 48 191 123 260 167 163 105 272 211 322 315 57 116 69 175 74
360 9 299 -36 450 -153 517 -31 18 -54 23 -114 22 -41 0 -95 -6 -120 -13z
m191 -107 c16 -17 33 -48 39 -69 19 -70 29 -232 30 -452 l0 -217 -92 -81
c-137 -119 -456 -329 -1278 -840 -549 -342 -721 -450 -1019 -647 -265 -174
-351 -238 -351 -258 0 -23 251 -195 793 -544 845 -543 1556 -973 1657 -1002
25 -7 100 -13 170 -13 118 -1 129 1 205 31 220 89 751 410 2180 1318 319 203
643 409 720 457 181 115 343 196 421 210 53 10 69 8 130 -10 204 -62 245 -136
276 -487 10 -116 13 -528 13 -1810 0 -1681 -3 -1815 -37 -1954 -30 -124 -110
-248 -221 -342 -91 -77 -394 -278 -737 -489 -395 -244 -1095 -680 -1226 -766
-261 -169 -359 -191 -392 -89 -31 93 -40 647 -12 720 15 38 135 121 585 400
810 503 1093 691 1172 776 36 40 61 109 75 209 18 132 19 2389 1 2529 -18 141
-15 140 -185 41 -222 -130 -1269 -760 -1823 -1098 -275 -167 -561 -337 -635
-378 -269 -146 -415 -189 -560 -165 -243 40 -484 171 -1675 911 -286 178 -716
445 -955 593 -596 369 -724 460 -822 581 -98 122 -155 277 -142 391 13 126 89
310 166 408 47 58 340 250 1563 1017 1526 958 1730 1083 1854 1131 64 25 79
23 112 -12z"/>
<path d="M7043 11291 c-81 -13 -135 -46 -211 -125 -110 -116 -162 -245 -162
-401 1 -110 11 -147 65 -225 93 -137 252 -287 368 -346 75 -39 336 -211 381
-252 88 -77 401 -218 531 -237 22 -4 72 0 113 9 247 52 453 289 452 520 -1 85
-37 187 -94 265 -63 85 -258 230 -688 510 -269 175 -376 236 -458 262 -73 22
-218 32 -297 20z m252 -130 c180 -69 724 -418 1013 -649 80 -64 93 -79 113
-130 27 -72 37 -221 19 -278 -7 -21 -26 -58 -42 -82 -39 -57 -171 -169 -233
-198 -141 -67 -266 -9 -940 434 -280 184 -371 263 -420 367 -56 117 -35 255
60 395 117 173 243 214 430 141z"/>
<path d="M5930 10106 c-107 -38 -320 -151 -372 -197 -13 -12 -64 -45 -113 -75
-50 -29 -95 -57 -100 -61 -47 -36 -94 -69 -180 -123 -203 -127 -273 -235 -250
-386 11 -74 68 -126 330 -299 572 -378 670 -427 800 -405 49 9 349 155 390
190 22 18 173 118 298 196 223 139 242 153 303 223 73 85 98 132 90 171 -7 36
-59 121 -83 136 -15 9 -166 133 -263 216 -36 30 -250 175 -360 243 -148 91
-357 195 -393 195 -18 0 -61 -11 -97 -24z m209 -128 c228 -124 720 -455 841
-564 49 -44 52 -75 11 -131 -55 -76 -134 -135 -396 -293 -93 -57 -265 -163
-382 -237 l-212 -133 -373 236 c-405 257 -485 311 -546 378 -74 80 -70 131 19
218 120 117 722 492 889 554 54 20 68 17 149 -28z"/>
<path d="M2900 7944 c-76 -33 -115 -94 -136 -218 -18 -97 -20 -588 -5 -688 46
-284 146 -375 1001 -915 857 -541 1041 -641 1163 -631 159 13 209 163 209 638
0 232 -11 364 -38 460 -12 43 -27 66 -67 105 -64 62 -201 158 -372 260 -71 43
-170 105 -220 139 -49 33 -100 66 -112 73 -13 6 -75 45 -138 85 -63 40 -130
82 -149 93 -231 139 -327 199 -491 306 -106 70 -230 144 -276 164 -46 21 -118
53 -159 72 -69 32 -168 74 -173 73 -1 -1 -18 -8 -37 -16z m190 -157 c209 -121
549 -329 1085 -665 259 -162 554 -347 656 -411 l186 -116 8 -345 c10 -466 2
-559 -57 -622 -27 -29 -32 -30 -82 -25 -103 10 -211 70 -771 425 -868 551
-1083 709 -1192 879 -71 110 -78 154 -78 503 0 322 7 384 47 435 11 14 27 25
36 25 10 0 83 -38 162 -83z"/>
<path d="M8235 7516 c-100 -32 -266 -120 -357 -188 -94 -72 -183 -169 -234
-255 -53 -90 -74 -115 -194 -224 -135 -123 -205 -173 -295 -215 -73 -33 -249
-139 -475 -286 -161 -104 -367 -229 -560 -338 -217 -123 -293 -175 -363 -248
-106 -112 -147 -245 -167 -537 -13 -201 -13 -1506 0 -1721 20 -334 54 -415
217 -525 92 -63 147 -86 232 -100 89 -15 186 1 281 47 134 64 175 112 209 245
36 144 45 310 66 1239 12 493 18 646 27 651 7 4 45 30 83 58 90 65 544 371
551 371 3 0 31 17 62 38 65 44 121 75 174 96 117 46 820 525 906 617 18 19 45
59 61 89 70 133 91 278 91 650 0 366 -12 431 -92 507 -62 59 -111 66 -223 29z
m155 -95 c13 -10 30 -36 36 -59 62 -212 35 -754 -45 -927 -72 -156 -333 -345
-1226 -895 -552 -339 -650 -411 -674 -496 -8 -26 -15 -299 -21 -839 -9 -797
-16 -958 -46 -1047 -19 -58 -74 -116 -140 -148 -72 -35 -206 -40 -292 -11 -83
28 -127 57 -216 141 l-73 70 -7 937 c-8 964 -3 1136 30 1287 32 142 99 239
229 331 33 23 254 159 490 302 970 585 1178 731 1284 906 114 187 217 277 475
411 134 70 146 72 196 37z"/>
<path d="M2324 6388 c-101 -68 -119 -145 -118 -508 1 -343 23 -458 115 -601
138 -213 372 -393 1186 -912 161 -103 422 -272 580 -375 490 -320 586 -369
719 -360 71 4 101 24 135 90 44 86 51 148 56 476 6 361 -6 552 -38 619 -45 94
-264 246 -1154 803 -591 370 -1042 638 -1253 745 -129 66 -159 69 -228 23z
m180 -115 c398 -223 2294 -1397 2334 -1446 42 -50 69 -878 33 -999 -13 -40
-81 -108 -109 -108 -21 0 -183 98 -707 430 -943 595 -1328 847 -1458 955 -162
134 -256 318 -286 560 -14 112 -14 494 -1 566 10 55 44 99 77 99 8 0 61 -26
117 -57z"/>
<path d="M1335 2367 c-80 -21 -144 -58 -195 -114 -59 -65 -80 -123 -80 -222 0
-86 8 -120 56 -243 19 -48 34 -96 34 -105 0 -10 -16 -31 -35 -48 -60 -50 -57
-133 6 -228 l31 -47 308 0 309 0 28 35 c16 19 48 71 72 115 23 44 46 82 50 85
5 3 36 -33 70 -79 33 -46 83 -100 110 -120 l49 -36 288 0 289 0 90 81 c50 44
105 93 124 107 l33 26 24 -27 c13 -16 24 -35 24 -43 0 -8 4 -13 9 -10 4 3 17
-4 27 -16 11 -11 50 -43 88 -69 l69 -49 289 0 290 0 71 65 c39 36 76 64 82 62
5 -2 11 -14 13 -28 1 -13 10 -41 19 -61 l16 -38 176 0 c97 0 182 4 189 9 11 7
13 82 10 402 -4 334 -7 403 -22 454 -20 72 -61 126 -107 142 -46 16 -133 16
-172 -1 -81 -34 -97 -86 -108 -351 -9 -238 -14 -286 -36 -368 l-16 -58 -63 61
c-99 95 -140 104 -257 59 -72 -28 -98 -25 -141 19 -82 81 -97 153 -42 208 29
29 41 34 83 34 27 0 73 -7 103 -15 110 -31 124 -30 172 4 24 17 71 63 106 101
51 56 61 73 53 87 -16 30 -144 149 -181 168 -19 10 -38 22 -41 27 -13 20 -98
34 -194 32 -160 -3 -268 -47 -393 -158 -34 -31 -66 -56 -69 -56 -4 0 -17 10
-31 22 l-23 23 10 -28 c12 -32 5 -51 -30 -82 -15 -13 -23 -16 -26 -8 -11 32
-79 106 -135 148 -213 160 -414 185 -638 79 -101 -48 -152 -92 -200 -174 -22
-38 -48 -73 -57 -78 -13 -8 -17 -28 -19 -98 -1 -49 -2 -92 -3 -96 -3 -21 -48
-4 -82 31 -33 33 -39 45 -39 81 0 46 48 143 75 154 27 10 18 65 -16 97 -41 39
-141 94 -215 119 -74 26 -212 34 -279 17z m267 -103 c72 -22 138 -65 138 -90
0 -26 -48 -89 -79 -104 -19 -9 -33 -6 -78 15 -120 54 -223 36 -223 -39 0 -44
43 -83 136 -121 197 -80 232 -103 266 -168 34 -65 31 -168 -5 -230 -89 -152
-321 -183 -536 -72 -25 13 -55 30 -66 39 -20 16 -19 16 12 45 49 45 98 54 250
46 l131 -7 17 26 c14 22 15 31 6 54 -15 35 -42 53 -121 82 -118 42 -220 124
-266 212 -30 59 -30 99 0 163 64 139 243 203 418 149z m2607 9 c36 -29 43
-121 39 -496 -3 -386 -4 -387 -68 -387 -52 0 -68 8 -86 41 -20 41 -34 232 -34
502 0 284 11 334 75 350 38 9 53 7 74 -10z m-1650 -12 c84 -26 141 -62 195
-122 59 -66 110 -168 93 -188 -9 -12 -9 -13 0 -8 32 19 39 -175 10 -258 -57
-161 -222 -287 -398 -302 -158 -13 -318 84 -402 245 -95 182 -71 375 63 510
129 130 280 173 439 123z m1083 -9 c67 -33 138 -98 138 -128 0 -29 -55 -94
-81 -94 -10 0 -34 11 -54 24 -72 49 -212 39 -299 -22 -117 -81 -121 -298 -9
-391 77 -64 253 -83 306 -33 13 12 31 22 40 22 46 0 147 -65 147 -95 0 -21
-45 -54 -122 -90 -162 -74 -257 -81 -374 -26 -132 62 -240 210 -266 365 -34
203 95 403 307 478 72 26 204 21 267 -10z"/>
<path d="M2385 2078 c-35 -12 -84 -48 -121 -86 -72 -76 -85 -180 -34 -268 67
-118 180 -163 285 -115 52 23 138 118 161 176 21 56 10 102 -43 183 -68 102
-158 142 -248 110z m75 -137 c60 -12 80 -39 80 -106 0 -69 -19 -92 -89 -105
-62 -12 -98 -5 -111 20 -6 10 -10 52 -10 94 0 106 17 118 130 97z"/>
<path d="M4580 2371 c-58 -12 -81 -30 -105 -84 -37 -80 -47 -162 -52 -428 -5
-238 5 -417 27 -475 l10 -24 386 0 386 0 30 25 c16 14 33 25 37 25 4 0 18 -11
31 -25 l23 -25 377 0 377 0 11 25 c7 14 12 56 12 93 0 130 -54 178 -216 192
-103 9 -134 23 -158 69 -23 43 -36 143 -36 276 0 219 -28 311 -103 346 -52 23
-137 25 -182 3 -78 -37 -93 -102 -104 -464 -5 -157 -12 -293 -16 -302 -20 -51
-104 19 -132 110 -11 37 -17 90 -17 152 0 100 3 109 70 230 22 38 25 54 21
106 -8 104 -41 145 -132 165 -60 12 -496 21 -545 10z m554 -104 c29 -19 33
-45 15 -96 -16 -46 -51 -59 -205 -75 -167 -18 -187 -29 -192 -100 -4 -65 10
-80 68 -72 25 3 68 8 96 12 98 12 164 -31 164 -107 0 -56 -22 -66 -169 -74
-145 -9 -161 -17 -161 -88 0 -74 14 -80 203 -87 94 -4 171 -11 184 -18 44 -24
40 -147 -5 -168 -10 -5 -144 -10 -299 -12 l-283 -4 0 457 0 457 279 -4 c243
-3 281 -6 305 -21z m463 0 c16 -16 18 -48 21 -352 l3 -335 162 0 c167 0 234
-9 248 -32 11 -17 1 -76 -17 -105 -8 -12 -31 -27 -52 -32 -39 -11 -335 -31
-459 -31 l-73 0 0 456 0 456 75 -4 c54 -2 79 -8 92 -21z"/>
<path d="M6715 2373 c-104 -27 -132 -161 -122 -591 5 -233 15 -339 37 -397
l10 -25 160 0 161 0 25 58 c56 130 62 135 188 140 109 5 114 1 126 -91 4 -35
13 -74 19 -85 l12 -22 619 0 c438 0 621 3 626 11 4 7 20 8 43 4 20 -4 186 -10
370 -12 l333 -4 43 25 c130 77 216 233 242 442 7 58 9 34 14 -156 4 -154 10
-238 20 -265 l14 -40 378 -3 378 -2 47 32 c40 28 55 33 108 33 49 0 72 -6 122
-32 l62 -33 190 0 c220 0 214 -3 186 94 -9 34 -26 95 -37 136 -11 41 -57 146
-103 235 -45 88 -108 219 -139 291 -102 232 -124 254 -261 255 -151 2 -194
-51 -382 -473 -107 -239 -132 -289 -150 -295 -16 -5 -23 60 -34 304 -14 296
-33 385 -94 442 -52 49 -190 36 -244 -22 -31 -33 -52 -101 -52 -168 0 -32 -4
-69 -10 -84 -13 -35 -35 -23 -97 56 -118 150 -309 236 -553 246 -164 7 -231
-6 -281 -56 -54 -54 -63 -108 -60 -391 1 -245 -5 -380 -20 -380 -14 0 -149
134 -149 148 0 7 19 31 41 53 49 48 48 68 -4 151 -18 29 -36 61 -40 70 -6 18
10 41 44 58 51 28 77 159 45 233 -17 41 -66 83 -114 97 -58 18 -376 25 -473
11 -105 -16 -151 -35 -188 -77 -44 -50 -51 -90 -51 -301 0 -193 -13 -260 -24
-120 -3 39 -10 131 -15 202 -13 159 -32 228 -76 272 -26 26 -41 33 -73 33 -60
0 -163 -58 -284 -160 -59 -49 -110 -90 -113 -90 -4 0 -46 34 -93 76 -109 96
-176 141 -237 160 -50 15 -57 15 -90 7z m1720 -107 c22 -14 25 -24 25 -76 0
-93 -9 -97 -226 -102 -167 -4 -184 -13 -184 -92 0 -70 14 -82 74 -67 95 24
188 8 231 -38 27 -30 31 -85 7 -109 -16 -16 -39 -20 -143 -26 -154 -9 -169
-17 -169 -86 0 -80 12 -85 230 -94 63 -2 130 -10 148 -16 37 -14 62 -54 62
-100 0 -27 -6 -34 -47 -53 -45 -20 -67 -22 -320 -25 l-273 -4 0 333 c1 364 10
523 32 546 35 34 503 41 553 9z m555 14 c177 -20 276 -60 371 -148 129 -119
167 -278 106 -442 -28 -75 -55 -117 -116 -173 -103 -96 -209 -127 -455 -134
l-179 -6 7 384 c7 386 13 480 34 501 25 25 111 32 232 18z m1632 -19 c18 -16
54 -66 80 -112 40 -73 265 -567 318 -701 l19 -46 -31 -11 c-43 -15 -112 -14
-153 3 -24 10 -41 29 -58 63 -39 75 -91 96 -228 95 -111 -2 -179 -30 -250
-104 -52 -54 -59 -58 -102 -58 -28 0 -52 6 -61 16 -9 8 -16 17 -16 18 0 33
215 547 302 721 51 101 89 142 135 144 7 1 27 -12 45 -28z m-3802 3 c45 -30
130 -117 223 -228 l91 -109 146 150 c162 168 208 206 242 201 54 -7 67 -122
68 -575 l0 -323 -69 0 c-38 0 -77 3 -85 6 -36 14 -41 46 -46 279 l-5 229 -105
-126 c-58 -70 -108 -127 -113 -127 -4 -1 -69 46 -145 105 l-137 105 -5 -214
c-6 -237 -8 -247 -67 -247 -80 0 -95 52 -114 380 -15 273 -10 447 14 483 21
32 68 37 107 11z m3018 10 c55 -15 67 -105 77 -554 3 -162 8 -305 11 -317 4
-23 3 -23 -101 -23 l-105 0 1 348 c0 372 8 512 29 536 13 17 48 20 88 10z"/>
<path d="M8963 2080 c-33 -14 -38 -46 -38 -255 0 -238 3 -245 98 -245 76 0
129 23 192 81 61 56 89 110 89 174 0 85 -66 175 -166 226 -46 24 -141 34 -175
19z m183 -215 c9 -48 -2 -97 -28 -125 l-21 -23 -19 23 c-25 30 -26 155 -1 189
l16 24 23 -26 c13 -15 26 -43 30 -62z"/>
<path d="M10517 1866 c-26 -57 -47 -113 -47 -125 0 -20 5 -21 78 -21 107 0
122 5 122 43 0 27 -79 189 -99 201 -4 3 -29 -41 -54 -98z"/>
</g>
</svg>
